<svg width="1200" height="600" viewBox="0 0 1200 600" xmlns="http://www.w3.org/2000/svg"><mask id="satori_om-id"><rect x="0" y="0" width="1200" height="600" fill="#fff"/></mask><mask id="satori_om-id-0"><rect x="0" y="0" width="1200" height="600" fill="#fff"/></mask><rect x="0" y="0" width="1200" height="600" fill="#ECECEC"/><mask id="satori_om-id-0-0"><rect x="54" y="151" width="1093" height="160" fill="#fff"/></mask><path fill="#040404" d="M98.0 281.7C125.2 281.7 143.9 262.7 143.9 235.1C143.9 207.2 124.8 188.2 97.1 188.2L64.4 188.2L64.4 281.7ZM95.6 203.3C114.9 203.3 126.6 215.3 126.6 235.1C126.6 254.6 115.2 266.6 96.5 266.6L80.8 266.6L80.8 203.3ZM151.3 311.0C154.7 311.9 158.6 312.5 162.9 312.5C173.3 312.5 180.0 307.6 184.7 295.8L215.7 218.5L199.5 218.5L182.4 264.6L166.1 218.5L149.6 218.5L175.1 284.4L173.3 289.2C170.6 296.6 166.8 298.0 160.6 298.0L151.3 298.0ZM240.1 281.7L240.1 247.7C240.1 237.4 246.0 230.8 255.6 230.8C263.7 230.8 268.9 235.9 268.9 246.5L268.9 281.7L284.5 281.7L284.5 242.8C284.5 226.4 276.3 216.6 260.5 216.6C251.9 216.6 244.2 220.3 240.2 226.7L239.0 218.5L224.5 218.5L224.5 281.7ZM318.7 283.4C328.6 283.4 337.1 278.9 339.8 272.4L341.0 281.7L354.7 281.7L354.7 243.3C354.7 225.8 344.2 216.6 327.2 216.6C310 216.6 298.7 225.5 298.7 239.2L312.0 239.2C312.0 232.6 317.2 228.7 326.4 228.7C334.3 228.7 339.4 232.2 339.4 240.8L339.4 242.2L320.5 243.6C305.5 244.7 297.1 252.0 297.1 263.7C297.1 275.6 305.3 283.4 318.7 283.4ZM323.8 271.6C316.8 271.6 312.9 268.8 312.9 263.0C312.9 257.9 316.7 254.7 326.4 253.8L339.6 252.8L339.6 256.1C339.6 265.9 333.4 271.6 323.8 271.6ZM385.6 281.7L385.6 245.9C385.6 235.7 391.7 230.8 399.1 230.8C406.5 230.8 411.2 235.5 411.2 244.4L411.2 281.7L426.9 281.7L426.9 245.9C426.9 235.5 432.6 230.7 440.2 230.7C447.6 230.7 452.5 235.4 452.5 244.5L452.5 281.7L468.0 281.7L468.0 240.4C468.0 225.8 459.5 216.6 444.1 216.6C434.5 216.6 427.1 221.3 423.9 228.6C420.6 221.3 413.9 216.6 404.3 216.6C395.2 216.6 388.8 220.7 385.6 225.9L384.4 218.5L370.0 218.5L370.0 281.7ZM491.1 205.8C496.2 205.8 500.5 201.6 500.5 196.4C500.5 191.1 496.2 187.0 491.1 187.0C485.7 187.0 481.5 191.1 481.5 196.4C481.5 201.6 485.7 205.8 491.1 205.8ZM483.3 281.7L498.9 281.7L498.9 218.5L483.3 218.5ZM511.3 250.0C511.3 270.1 523.9 283.4 543.1 283.4C559.6 283.4 571.9 273.3 573.8 258.6L558.1 258.6C556.4 265.5 550.9 269.3 543.1 269.3C533.1 269.3 527.0 261.9 527.0 250.0C527.0 238.1 533.6 230.5 543.6 230.5C551.0 230.5 556.3 234.2 558.1 241.4L573.7 241.4C572.0 226.2 560.2 216.6 543.0 216.6C524.3 216.6 511.3 230.4 511.3 250.0ZM584.6 254.5L625.8 254.5L625.8 240.6L584.6 240.6ZM680.9 249.5C699.6 249.5 711.9 236.8 711.9 218.8C711.9 200.5 699.8 188.2 680.9 188.2L644.0 188.2L644.0 281.7L660.3 281.7L660.3 249.5ZM677.7 202.8C688.6 202.8 694.8 208.4 694.8 218.6C694.8 228.9 688.8 234.9 677.5 234.9L660.3 234.9L660.3 202.8ZM716.7 250.0C716.7 269.7 730.9 283.3 750.4 283.3C770.0 283.3 784.2 269.7 784.2 250.0C784.2 230.3 770.0 216.7 750.4 216.7C730.9 216.7 716.7 230.3 716.7 250.0ZM732.3 250.0C732.3 238.5 739.7 230.7 750.4 230.7C761.2 230.7 768.6 238.5 768.6 250.0C768.6 261.5 761.2 269.3 750.4 269.3C739.7 269.3 732.3 261.5 732.3 250.0ZM836.3 218.2C833.8 217.6 831.6 217.4 829.4 217.4C821.0 217.4 815.0 221.6 812.3 227.8L811.4 218.6L796.7 218.6L796.7 281.7L812.3 281.7L812.3 251.0C812.3 238.7 819.3 232.7 830.6 232.7L836.3 232.7ZM871.0 281.7L871.0 231.6L883.3 231.6L883.3 218.5L871.0 218.5L871.0 198.8L855.4 198.8L855.4 218.5L843.2 218.5L843.2 231.6L855.4 231.6L855.4 281.7ZM888.6 218.5L888.6 231.6L897.6 231.6L897.6 281.7L913.1 281.7L913.1 231.6L928.2 231.6L928.2 218.5L913.1 218.5L913.1 210.8C913.1 204.6 915.1 200.5 923.0 200.5L928.5 200.5L928.5 187.1C925.8 186.6 922.9 186.5 920.4 186.5C906.7 186.5 897.6 193.7 897.6 210.8L897.6 218.5ZM932.6 250.0C932.6 269.7 946.8 283.3 966.4 283.3C986.0 283.3 1000.2 269.7 1000.2 250.0C1000.2 230.3 986.0 216.7 966.4 216.7C946.8 216.7 932.6 230.3 932.6 250.0ZM948.2 250.0C948.2 238.5 955.6 230.7 966.4 230.7C977.1 230.7 984.6 238.5 984.6 250.0C984.6 261.5 977.1 269.3 966.4 269.3C955.6 269.3 948.2 261.5 948.2 250.0ZM1028.3 281.7L1028.3 186.5L1012.8 186.5L1012.8 281.7ZM1052.5 205.8C1057.6 205.8 1061.9 201.6 1061.9 196.4C1061.9 191.1 1057.6 187.0 1052.5 187.0C1047.2 187.0 1042.9 191.1 1042.9 196.4C1042.9 201.6 1047.2 205.8 1052.5 205.8ZM1044.7 281.7L1060.3 281.7L1060.3 218.5L1044.7 218.5ZM1072.8 250.0C1072.8 269.7 1087.0 283.3 1106.5 283.3C1126.1 283.3 1140.3 269.7 1140.3 250.0C1140.3 230.3 1126.1 216.7 1106.5 216.7C1087.0 216.7 1072.8 230.3 1072.8 250.0ZM1088.4 250.0C1088.4 238.5 1095.8 230.7 1106.5 230.7C1117.3 230.7 1124.7 238.5 1124.7 250.0C1124.7 261.5 1117.3 269.3 1106.5 269.3C1095.8 269.3 1088.4 261.5 1088.4 250.0Z "/><mask id="satori_om-id-0-1"><rect x="75" y="327" width="1051" height="40" fill="#fff"/></mask><path fill="#040404" d="M84.8 359.8C91.6 359.8 96.2 355.2 96.2 348.4C96.2 341.5 91.6 336.9 84.7 336.9L77.8 336.9L77.8 359.8ZM84.6 339.0C90.3 339.0 93.8 342.6 93.8 348.4C93.8 354.1 90.3 357.7 84.7 357.7L80.1 357.7L80.1 339.0ZM98.3 366.6C99.0 366.7 99.7 366.8 100.7 366.8C102.9 366.8 104.4 365.8 105.3 363.4L112.4 344.3L110.1 344.3L105.2 357.8L100.2 344.3L97.9 344.3L104.2 360.8L103.5 362.6C102.7 364.7 101.4 364.8 100.0 364.8L98.3 364.8ZM117.2 359.8L117.2 351.7C117.2 348.2 119.0 345.9 122.1 345.9C124.7 345.9 126.3 347.2 126.3 350.8L126.3 359.8L128.5 359.8L128.5 350.4C128.5 346.5 126.8 343.9 122.5 343.9C120.3 343.9 118.2 345.0 117.2 347.0L116.9 344.3L115.0 344.3L115.0 359.8ZM137.4 360.2C140.0 360.2 142.1 359.1 143.1 357.1L143.4 359.8L145.2 359.8L145.2 349.8C145.2 345.7 142.6 343.9 139.0 343.9C135.2 343.9 132.7 345.9 132.7 349.1L134.7 349.1C134.7 347 136.3 345.8 139.0 345.8C141.2 345.8 143.1 346.7 143.1 349.8L143.1 350.3L137.9 350.7C134.3 351 132.2 352.8 132.2 355.6C132.2 358.4 134.1 360.2 137.4 360.2ZM137.9 358.4C135.8 358.4 134.4 357.5 134.4 355.6C134.4 353.8 135.6 352.6 138.5 352.3L143.1 352.0L143.1 352.8C143.1 356.2 141.2 358.4 137.9 358.4ZM151.9 359.8L151.9 350.2C151.9 347.9 153.4 345.9 156.0 345.9C158.4 345.9 159.9 347.5 159.9 350.1L159.9 359.8L162.0 359.8L162.0 350.3C162.0 347.9 163.6 345.9 166.2 345.9C168.5 345.9 170.0 347.5 170.0 350.1L170.0 359.8L172.2 359.8L172.2 349.7C172.2 346.1 169.9 343.9 166.6 343.9C164.1 343.9 162.2 345.2 161.5 347.2C160.8 345.2 158.9 343.9 156.5 343.9C154.3 343.9 152.6 344.9 151.8 346.6L151.6 344.3L149.7 344.3L149.7 359.8ZM177.7 340.1C178.6 340.1 179.4 339.4 179.4 338.5C179.4 337.6 178.6 336.8 177.7 336.8C176.8 336.8 176.1 337.6 176.1 338.5C176.1 339.4 176.8 340.1 177.7 340.1ZM176.6 359.8L178.8 359.8L178.8 344.3L176.6 344.3ZM182.3 352.1C182.3 357.0 185.3 360.2 189.7 360.2C193.2 360.2 196.0 358.1 196.7 355.0L194.5 355.0C193.8 357.0 192.0 358.2 189.7 358.2C186.6 358.2 184.5 355.8 184.5 352.1C184.5 348.3 186.7 345.9 189.8 345.9C192.0 345.9 193.8 347.1 194.4 349.2L196.6 349.2C196.0 346.0 193.4 343.9 189.8 343.9C185.3 343.9 182.3 347.3 182.3 352.1Z M218.1 351.4C222.5 351.4 225.3 348.3 225.3 344.1C225.3 339.8 222.6 336.9 218.1 336.9L209.4 336.9L209.4 359.8L211.7 359.8L211.7 351.4ZM217.8 339C221.0 339 222.9 340.9 222.9 344.1C222.9 347.2 221.0 349.3 217.7 349.3L211.7 349.3L211.7 339ZM226.8 352.1C226.8 356.8 230.1 360.2 234.7 360.2C239.2 360.2 242.6 356.8 242.6 352.1C242.6 347.4 239.2 343.9 234.7 343.9C230.1 343.9 226.8 347.4 226.8 352.1ZM229.0 352.1C229.0 348.5 231.4 345.9 234.7 345.9C238.0 345.9 240.3 348.5 240.3 352.1C240.3 355.7 238.0 358.2 234.7 358.2C231.4 358.2 229.0 355.7 229.0 352.1ZM254.2 344.2C253.6 344.0 253.2 344.0 252.7 344.0C250.6 344.0 248.9 345.1 248.3 346.7L248.2 344.3L246.1 344.3L246.1 359.8L248.3 359.8L248.3 351C248.3 348.1 250.1 346.1 253.0 346.1L254.2 346.1ZM261.3 359.8L261.3 346.2L264.4 346.2L264.4 344.3L261.3 344.3L261.3 339.4L259.1 339.4L259.1 344.3L256.0 344.3L256.0 346.2L259.1 346.2L259.1 359.8ZM265.7 344.3L265.7 346.2L268.1 346.2L268.1 359.8L270.3 359.8L270.3 346.2L273.9 346.2L273.9 344.3L270.3 344.3L270.3 341.3C270.3 339.5 270.8 338.5 272.7 338.5L274.0 338.5L274.0 336.6C273.5 336.5 272.9 336.5 272.3 336.5C270.0 336.5 268.1 337.8 268.1 341.3L268.1 344.3ZM275.4 352.1C275.4 356.8 278.7 360.2 283.2 360.2C287.8 360.2 291.1 356.8 291.1 352.1C291.1 347.4 287.8 343.9 283.2 343.9C278.7 343.9 275.4 347.4 275.4 352.1ZM277.6 352.1C277.6 348.5 279.9 345.9 283.2 345.9C286.5 345.9 288.9 348.5 288.9 352.1C288.9 355.7 286.5 358.2 283.2 358.2C279.9 358.2 277.6 355.7 277.6 352.1ZM296.9 359.8L296.9 336.5L294.7 336.5L294.7 359.8ZM302.7 340.1C303.6 340.1 304.4 339.4 304.4 338.5C304.4 337.6 303.6 336.8 302.7 336.8C301.8 336.8 301.1 337.6 301.1 338.5C301.1 339.4 301.8 340.1 302.7 340.1ZM301.6 359.8L303.8 359.8L303.8 344.3L301.6 344.3ZM307.4 352.1C307.4 356.8 310.7 360.2 315.2 360.2C319.8 360.2 323.1 356.8 323.1 352.1C323.1 347.4 319.8 343.9 315.2 343.9C310.7 343.9 307.4 347.4 307.4 352.1ZM309.6 352.1C309.6 348.5 311.9 345.9 315.2 345.9C318.5 345.9 320.9 348.5 320.9 352.1C320.9 355.7 318.5 358.2 315.2 358.2C311.9 358.2 309.6 355.7 309.6 352.1Z M338.1 359.8L338.1 351.4C338.1 348.4 339.8 345.9 343.1 345.9C345.5 345.9 347.2 347.2 347.2 350.8L347.2 359.8L349.4 359.8L349.4 350.4C349.4 346.5 347.6 343.9 343.5 343.9C341.0 343.9 339.1 345.2 338.1 347.0L338.1 336.5L335.9 336.5L335.9 359.8ZM360.3 360.2C364.0 360.2 366.4 358.5 367.2 355.2L365.1 355.2C364.5 357.2 362.9 358.3 360.4 358.3C357.0 358.3 355.1 356.2 354.9 352.4L367.2 352.4L367.2 351.3C367.2 346.9 364.4 343.9 360.2 343.9C355.8 343.9 352.8 347.3 352.8 352.1C352.8 357.0 355.8 360.2 360.3 360.2ZM360.2 345.8C363.1 345.8 365.0 347.8 365.0 350.8L355.0 350.8C355.4 347.7 357.3 345.8 360.2 345.8ZM373.0 359.8L373.0 336.5L370.8 336.5L370.8 359.8ZM377.8 366.6L380.0 366.6L380.0 356.9C381.0 359.1 383.1 360.2 385.8 360.2C390.3 360.2 392.9 356.7 392.9 352.0C392.9 347.4 390.2 343.9 385.8 343.9C383.2 343.9 381.0 345.1 379.9 347.5L379.7 344.3L377.8 344.3ZM380.0 352.1C380.0 348.5 382.0 345.9 385.4 345.9C388.7 345.9 390.7 348.5 390.7 352.1C390.7 355.6 388.7 358.2 385.4 358.2C382.0 358.2 380.0 355.6 380.0 352.1ZM395.1 355.5C395.1 358.4 397.3 360.2 400.8 360.2C404.3 360.2 406.7 358.4 406.7 355.6C406.7 353.4 405.5 352.1 402.8 351.4L400.1 350.8C398.4 350.4 397.6 349.5 397.6 348.3C397.6 346.7 398.8 345.8 401.0 345.8C403.1 345.8 404.3 346.8 404.4 348.6L406.5 348.6C406.4 345.7 404.3 343.9 401.0 343.9C397.7 343.9 395.4 345.7 395.4 348.4C395.4 350.5 396.8 351.9 399.4 352.6L402.1 353.2C403.9 353.7 404.6 354.4 404.6 355.7C404.6 357.4 403.2 358.4 400.8 358.4C398.6 358.4 397.2 357.3 397.2 355.5Z M417.6 366.6C418.3 366.7 419.0 366.8 420.0 366.8C422.2 366.8 423.7 365.8 424.6 363.4L431.7 344.3L429.4 344.3L424.5 357.8L419.5 344.3L417.2 344.3L423.4 360.8L422.8 362.6C422.0 364.7 420.7 364.8 419.3 364.8L417.6 364.8ZM432.6 352.1C432.6 356.8 436.0 360.2 440.5 360.2C445.0 360.2 448.4 356.8 448.4 352.1C448.4 347.4 445.0 343.9 440.5 343.9C436.0 343.9 432.6 347.4 432.6 352.1ZM434.9 352.1C434.9 348.5 437.2 345.9 440.5 345.9C443.8 345.9 446.1 348.5 446.1 352.1C446.1 355.7 443.8 358.2 440.5 358.2C437.2 358.2 434.9 355.7 434.9 352.1ZM462.4 344.3L462.4 352.6C462.4 356.2 460.6 358.2 457.7 358.2C455.2 358.2 453.6 356.9 453.6 353.2L453.6 344.3L451.3 344.3L451.3 353.9C451.3 357.7 453.3 360.2 457.0 360.2C459.4 360.2 461.5 359 462.4 357.2L462.7 359.8L464.6 359.8L464.6 344.3Z M477.9 352.1C477.9 357.0 480.9 360.2 485.3 360.2C488.8 360.2 491.5 358.1 492.3 355.0L490.0 355.0C489.4 357.0 487.6 358.2 485.3 358.2C482.1 358.2 480.1 355.8 480.1 352.1C480.1 348.3 482.3 345.9 485.4 345.9C487.6 345.9 489.4 347.1 490.0 349.2L492.2 349.2C491.6 346.0 489.0 343.9 485.4 343.9C480.9 343.9 477.9 347.3 477.9 352.1ZM503.7 344.2C503.2 344.0 502.8 344.0 502.3 344.0C500.1 344.0 498.5 345.1 497.9 346.7L497.7 344.3L495.6 344.3L495.6 359.8L497.8 359.8L497.8 351C497.8 348.1 499.7 346.1 502.5 346.1L503.7 346.1ZM512.6 360.2C516.2 360.2 518.6 358.5 519.4 355.2L517.3 355.2C516.8 357.2 515.1 358.3 512.6 358.3C509.3 358.3 507.3 356.2 507.1 352.4L519.4 352.4L519.4 351.3C519.4 346.9 516.6 343.9 512.4 343.9C508.0 343.9 505.0 347.3 505.0 352.1C505.0 357.0 508.0 360.2 512.6 360.2ZM512.4 345.8C515.3 345.8 517.2 347.8 517.2 350.8L507.2 350.8C507.6 347.7 509.5 345.8 512.4 345.8ZM527.3 360.2C529.9 360.2 532.0 359.1 533.0 357.1L533.2 359.8L535.1 359.8L535.1 349.8C535.1 345.7 532.5 343.9 528.9 343.9C525.1 343.9 522.5 345.9 522.5 349.1L524.5 349.1C524.5 347 526.1 345.8 528.8 345.8C531.1 345.8 532.9 346.7 532.9 349.8L532.9 350.3L527.8 350.7C524.2 351 522.0 352.8 522.0 355.6C522.0 358.4 524.0 360.2 527.3 360.2ZM527.8 358.4C525.7 358.4 524.2 357.5 524.2 355.6C524.2 353.8 525.4 352.6 528.3 352.3L532.9 352.0L532.9 352.8C532.9 356.2 531.0 358.4 527.8 358.4ZM542.8 359.8L542.8 346.2L545.9 346.2L545.9 344.3L542.8 344.3L542.8 339.4L540.6 339.4L540.6 344.3L537.5 344.3L537.5 346.2L540.6 346.2L540.6 359.8ZM555.1 360.2C558.7 360.2 561.1 358.5 562.0 355.2L559.9 355.2C559.3 357.2 557.7 358.3 555.1 358.3C551.8 358.3 549.8 356.2 549.7 352.4L562.0 352.4L562.0 351.3C562.0 346.9 559.1 343.9 554.9 343.9C550.5 343.9 547.5 347.3 547.5 352.1C547.5 357.0 550.6 360.2 555.1 360.2ZM554.9 345.8C557.8 345.8 559.8 347.8 559.8 350.8L549.7 350.8C550.1 347.7 552.0 345.8 554.9 345.8Z M574.3 355.5C574.3 358.4 576.4 360.2 579.9 360.2C583.4 360.2 585.8 358.4 585.8 355.6C585.8 353.4 584.6 352.1 581.9 351.4L579.3 350.8C577.6 350.4 576.7 349.5 576.7 348.3C576.7 346.7 577.9 345.8 580.1 345.8C582.2 345.8 583.4 346.8 583.5 348.6L585.7 348.6C585.6 345.7 583.4 343.9 580.2 343.9C576.9 343.9 574.6 345.7 574.6 348.4C574.6 350.5 575.9 351.9 578.6 352.6L581.2 353.2C583.1 353.7 583.7 354.4 583.7 355.7C583.7 357.4 582.3 358.4 579.9 358.4C577.7 358.4 576.4 357.3 576.4 355.5ZM590.6 340.1C591.4 340.1 592.2 339.4 592.2 338.5C592.2 337.6 591.4 336.8 590.6 336.8C589.7 336.8 588.9 337.6 588.9 338.5C588.9 339.4 589.7 340.1 590.6 340.1ZM589.5 359.8L591.7 359.8L591.7 344.3L589.5 344.3ZM598.5 359.8L598.5 350.2C598.5 347.9 600.1 345.9 602.6 345.9C605.0 345.9 606.5 347.5 606.5 350.1L606.5 359.8L608.7 359.8L608.7 350.3C608.7 347.9 610.2 345.9 612.8 345.9C615.2 345.9 616.6 347.5 616.6 350.1L616.6 359.8L618.8 359.8L618.8 349.7C618.8 346.1 616.6 343.9 613.2 343.9C610.7 343.9 608.8 345.2 608.1 347.2C607.4 345.2 605.6 343.9 603.1 343.9C601.0 343.9 599.2 344.9 598.5 346.6L598.2 344.3L596.3 344.3L596.3 359.8ZM623.2 366.6L625.4 366.6L625.4 356.9C626.5 359.1 628.6 360.2 631.2 360.2C635.8 360.2 638.4 356.7 638.4 352.0C638.4 347.4 635.7 343.9 631.2 343.9C628.6 343.9 626.5 345.1 625.4 347.5L625.1 344.3L623.2 344.3ZM625.5 352.1C625.5 348.5 627.4 345.9 630.8 345.9C634.2 345.9 636.2 348.5 636.2 352.1C636.2 355.6 634.2 358.2 630.8 358.2C627.4 358.2 625.5 355.6 625.5 352.1ZM644.2 359.8L644.2 336.5L642.0 336.5L642.0 359.8ZM655.4 360.2C659.1 360.2 661.5 358.5 662.3 355.2L660.2 355.2C659.6 357.2 658.0 358.3 655.4 358.3C652.1 358.3 650.1 356.2 650.0 352.4L662.3 352.4L662.3 351.3C662.3 346.9 659.4 343.9 655.3 343.9C650.8 343.9 647.8 347.3 647.8 352.1C647.8 357.0 650.9 360.2 655.4 360.2ZM655.3 345.8C658.2 345.8 660.1 347.8 660.1 350.8L650.0 350.8C650.4 347.7 652.3 345.8 655.3 345.8Z M677.9 359.8L680.2 359.8L683.4 350.1C683.8 348.8 684.0 347.9 684.2 347.1C684.4 348.0 684.7 349.0 685.1 350.1L688.3 359.8L690.4 359.8L695.7 344.3L693.4 344.3L690.3 353.7C689.8 355.4 689.7 355.7 689.4 357.0C689.1 355.9 688.7 354.5 688.4 353.7L685.4 344.3L683.1 344.3L680.0 353.7C679.9 354.2 679.4 355.8 679.1 357.0C678.8 355.8 678.5 354.7 678.1 353.7L675.1 344.3L672.8 344.3ZM704.2 360.2C707.9 360.2 710.3 358.5 711.1 355.2L709.0 355.2C708.4 357.2 706.8 358.3 704.3 358.3C701.0 358.3 699.0 356.2 698.8 352.4L711.1 352.4L711.1 351.3C711.1 346.9 708.3 343.9 704.1 343.9C699.7 343.9 696.7 347.3 696.7 352.1C696.7 357.0 699.7 360.2 704.2 360.2ZM704.1 345.8C707.0 345.8 708.9 347.8 708.9 350.8L698.9 350.8C699.3 347.7 701.2 345.8 704.1 345.8ZM716.6 359.8L716.8 356.7C717.9 359.1 720.0 360.2 722.6 360.2C727.1 360.2 729.8 356.8 729.8 352.1C729.8 347.4 727.2 343.9 722.7 343.9C720.1 343.9 717.9 345.1 716.9 347.4L716.9 336.5L714.6 336.5L714.6 359.8ZM716.9 352.1C716.9 348.5 718.9 345.9 722.3 345.9C725.6 345.9 727.6 348.5 727.6 352.1C727.6 355.6 725.6 358.2 722.3 358.2C718.9 358.2 716.9 355.6 716.9 352.1ZM732.0 355.5C732.0 358.4 734.2 360.2 737.7 360.2C741.2 360.2 743.6 358.4 743.6 355.6C743.6 353.4 742.4 352.1 739.7 351.4L737.0 350.8C735.3 350.4 734.5 349.5 734.5 348.3C734.5 346.7 735.7 345.8 737.9 345.8C740.0 345.8 741.2 346.8 741.3 348.6L743.4 348.6C743.3 345.7 741.2 343.9 737.9 343.9C734.6 343.9 732.3 345.7 732.3 348.4C732.3 350.5 733.7 351.9 736.3 352.6L739 353.2C740.8 353.7 741.5 354.4 741.5 355.7C741.5 357.4 740.1 358.4 737.7 358.4C735.5 358.4 734.1 357.3 734.1 355.5ZM748.3 340.1C749.2 340.1 750.0 339.4 750.0 338.5C750.0 337.6 749.2 336.8 748.3 336.8C747.4 336.8 746.7 337.6 746.7 338.5C746.7 339.4 747.4 340.1 748.3 340.1ZM747.2 359.8L749.4 359.8L749.4 344.3L747.2 344.3ZM757.6 359.8L757.6 346.2L760.7 346.2L760.7 344.3L757.6 344.3L757.6 339.4L755.4 339.4L755.4 344.3L752.3 344.3L752.3 346.2L755.4 346.2L755.4 359.8ZM769.9 360.2C773.6 360.2 776.0 358.5 776.8 355.2L774.7 355.2C774.1 357.2 772.5 358.3 769.9 358.3C766.6 358.3 764.6 356.2 764.5 352.4L776.8 352.4L776.8 351.3C776.8 346.9 773.9 343.9 769.8 343.9C765.3 343.9 762.3 347.3 762.3 352.1C762.3 357.0 765.4 360.2 769.9 360.2ZM769.8 345.8C772.7 345.8 774.6 347.8 774.6 350.8L764.5 350.8C764.9 347.7 766.8 345.8 769.8 345.8ZM779 355.5C779 358.4 781.2 360.2 784.7 360.2C788.2 360.2 790.6 358.4 790.6 355.6C790.6 353.4 789.3 352.1 786.6 351.4L784.0 350.8C782.3 350.4 781.5 349.5 781.5 348.3C781.5 346.7 782.7 345.8 784.9 345.8C786.9 345.8 788.2 346.8 788.2 348.6L790.4 348.6C790.3 345.7 788.2 343.9 784.9 343.9C781.6 343.9 779.3 345.7 779.3 348.4C779.3 350.5 780.6 351.9 783.3 352.6L786.0 353.2C787.8 353.7 788.4 354.4 788.4 355.7C788.4 357.4 787.0 358.4 784.6 358.4C782.5 358.4 781.1 357.3 781.1 355.5Z M805.8 359.8L806.0 356.7C807.1 359.1 809.3 360.2 811.9 360.2C816.4 360.2 819.1 356.8 819.1 352.1C819.1 347.4 816.4 343.9 811.9 343.9C809.3 343.9 807.2 345.1 806.1 347.4L806.1 336.5L803.9 336.5L803.9 359.8ZM806.1 352.1C806.1 348.5 808.1 345.9 811.5 345.9C814.9 345.9 816.8 348.5 816.8 352.1C816.8 355.6 814.9 358.2 811.5 358.2C808.1 358.2 806.1 355.6 806.1 352.1ZM820.5 366.6C821.2 366.7 821.9 366.8 822.8 366.8C825.0 366.8 826.6 365.8 827.4 363.4L834.6 344.3L832.3 344.3L827.4 357.8L822.4 344.3L820.1 344.3L826.3 360.8L825.7 362.6C824.9 364.7 823.5 364.8 822.2 364.8L820.5 364.8Z M847.6 340.1C848.5 340.1 849.3 339.4 849.3 338.5C849.3 337.6 848.5 336.8 847.6 336.8C846.7 336.8 846.0 337.6 846.0 338.5C846.0 339.4 846.7 340.1 847.6 340.1ZM842.4 366.6C843.2 366.8 843.6 366.9 844.5 366.9C847.2 366.9 848.7 365.1 848.7 362.2L848.7 344.3L846.5 344.3L846.5 362.0C846.5 363.9 845.8 364.8 844.3 364.8C843.8 364.8 843.4 364.8 842.8 364.6ZM864.2 344.3L864.2 352.6C864.2 356.2 862.5 358.2 859.5 358.2C857.0 358.2 855.4 356.9 855.4 353.2L855.4 344.3L853.1 344.3L853.1 353.9C853.1 357.7 855.1 360.2 858.8 360.2C861.2 360.2 863.4 359 864.2 357.2L864.5 359.8L866.4 359.8L866.4 344.3ZM869.4 355.5C869.4 358.4 871.6 360.2 875.1 360.2C878.6 360.2 881.0 358.4 881.0 355.6C881.0 353.4 879.7 352.1 877.0 351.4L874.4 350.8C872.7 350.4 871.9 349.5 871.9 348.3C871.9 346.7 873.1 345.8 875.3 345.8C877.3 345.8 878.6 346.8 878.6 348.6L880.8 348.6C880.7 345.7 878.6 343.9 875.3 343.9C872.0 343.9 869.7 345.7 869.7 348.4C869.7 350.5 871.0 351.9 873.7 352.6L876.4 353.2C878.2 353.7 878.8 354.4 878.8 355.7C878.8 357.4 877.4 358.4 875.0 358.4C872.9 358.4 871.5 357.3 871.5 355.5ZM888.2 359.8L888.2 346.2L891.3 346.2L891.3 344.3L888.2 344.3L888.2 339.4L886.0 339.4L886.0 344.3L882.9 344.3L882.9 346.2L886.0 346.2L886.0 359.8Z M901.6 344.3L901.6 346.2L904.0 346.2L904.0 359.8L906.2 359.8L906.2 346.2L909.8 346.2L909.8 344.3L906.2 344.3L906.2 341.3C906.2 339.5 906.7 338.5 908.6 338.5L909.9 338.5L909.9 336.6C909.4 336.5 908.8 336.5 908.2 336.5C905.9 336.5 904.0 337.8 904.0 341.3L904.0 344.3ZM913.9 340.1C914.8 340.1 915.6 339.4 915.6 338.5C915.6 337.6 914.8 336.8 913.9 336.8C913.0 336.8 912.3 337.6 912.3 338.5C912.3 339.4 913.0 340.1 913.9 340.1ZM912.8 359.8L915.0 359.8L915.0 344.3L912.8 344.3ZM921.9 359.8L921.9 336.5L919.7 336.5L919.7 359.8ZM929.0 359.8L929.0 336.5L926.7 336.5L926.7 359.8ZM934.7 340.1C935.6 340.1 936.4 339.4 936.4 338.5C936.4 337.6 935.6 336.8 934.7 336.8C933.8 336.8 933.1 337.6 933.1 338.5C933.1 339.4 933.8 340.1 934.7 340.1ZM933.7 359.8L935.9 359.8L935.9 344.3L933.7 344.3ZM942.7 359.8L942.7 351.7C942.7 348.2 944.5 345.9 947.6 345.9C950.2 345.9 951.8 347.2 951.8 350.8L951.8 359.8L954.0 359.8L954.0 350.4C954.0 346.5 952.3 343.9 948.0 343.9C945.8 343.9 943.7 345.0 942.7 347.0L942.4 344.3L940.5 344.3L940.5 359.8ZM957.4 351.6C957.4 355.9 960.1 359.4 964.5 359.4C967.2 359.4 969.3 358.1 970.4 355.9L970.4 359.6C970.4 362.8 968.2 365.0 965.1 365.0C962.3 365.0 960.4 363.5 959.9 361.0L957.7 361.0C958.3 364.7 961.1 367.0 965.0 367.0C969.6 367.0 972.5 364.0 972.5 359.4L972.5 344.3L970.6 344.3L970.4 347.4C969.4 345.2 967.4 343.9 964.7 343.9C960.1 343.9 957.4 347.4 957.4 351.6ZM959.6 351.6C959.6 348.5 961.5 345.9 964.9 345.9C968.2 345.9 970.2 348.3 970.2 351.6C970.2 354.9 968.2 357.4 964.8 357.4C961.6 357.4 959.6 354.8 959.6 351.6Z M984.9 352.1C984.9 356.8 988.2 360.2 992.8 360.2C997.3 360.2 1000.7 356.8 1000.7 352.1C1000.7 347.4 997.3 343.9 992.8 343.9C988.2 343.9 984.9 347.4 984.9 352.1ZM987.2 352.1C987.2 348.5 989.5 345.9 992.8 345.9C996.1 345.9 998.4 348.5 998.4 352.1C998.4 355.7 996.1 358.2 992.8 358.2C989.5 358.2 987.2 355.7 987.2 352.1ZM1014.7 344.3L1014.7 352.6C1014.7 356.2 1012.9 358.2 1009.9 358.2C1007.5 358.2 1005.8 356.9 1005.8 353.2L1005.8 344.3L1003.6 344.3L1003.6 353.9C1003.6 357.7 1005.6 360.2 1009.2 360.2C1011.7 360.2 1013.8 359 1014.7 357.2L1015.0 359.8L1016.9 359.8L1016.9 344.3ZM1025.0 359.8L1025.0 346.2L1028.2 346.2L1028.2 344.3L1025.0 344.3L1025.0 339.4L1022.9 339.4L1022.9 344.3L1019.8 344.3L1019.8 346.2L1022.9 346.2L1022.9 359.8Z M1038.6 344.3L1038.6 346.2L1040.9 346.2L1040.9 359.8L1043.1 359.8L1043.1 346.2L1046.8 346.2L1046.8 344.3L1043.1 344.3L1043.1 341.3C1043.1 339.5 1043.6 338.5 1045.6 338.5L1046.9 338.5L1046.9 336.6C1046.4 336.5 1045.8 336.5 1045.2 336.5C1042.8 336.5 1040.9 337.8 1040.9 341.3L1040.9 344.3ZM1048.2 352.1C1048.2 356.8 1051.5 360.2 1056.1 360.2C1060.6 360.2 1064.0 356.8 1064.0 352.1C1064.0 347.4 1060.6 343.9 1056.1 343.9C1051.5 343.9 1048.2 347.4 1048.2 352.1ZM1050.5 352.1C1050.5 348.5 1052.8 345.9 1056.1 345.9C1059.4 345.9 1061.7 348.5 1061.7 352.1C1061.7 355.7 1059.4 358.2 1056.1 358.2C1052.8 358.2 1050.5 355.7 1050.5 352.1ZM1075.6 344.2C1075.0 344.0 1074.6 344.0 1074.1 344.0C1072.0 344.0 1070.3 345.1 1069.7 346.7L1069.6 344.3L1067.5 344.3L1067.5 359.8L1069.7 359.8L1069.7 351C1069.7 348.1 1071.5 346.1 1074.4 346.1L1075.6 346.1ZM1080.7 359.8L1080.7 350.2C1080.7 347.9 1082.3 345.9 1084.9 345.9C1087.2 345.9 1088.7 347.5 1088.7 350.1L1088.7 359.8L1090.9 359.8L1090.9 350.3C1090.9 347.9 1092.4 345.9 1095.0 345.9C1097.4 345.9 1098.9 347.5 1098.9 350.1L1098.9 359.8L1101.0 359.8L1101.0 349.7C1101.0 346.1 1098.8 343.9 1095.4 343.9C1093.0 343.9 1091.1 345.2 1090.4 347.2C1089.6 345.2 1087.8 343.9 1085.4 343.9C1083.2 343.9 1081.5 344.9 1080.7 346.6L1080.4 344.3L1078.5 344.3L1078.5 359.8ZM1104.0 355.5C1104.0 358.4 1106.1 360.2 1109.6 360.2C1113.1 360.2 1115.5 358.4 1115.5 355.6C1115.5 353.4 1114.3 352.1 1111.6 351.4L1109.0 350.8C1107.3 350.4 1106.4 349.5 1106.4 348.3C1106.4 346.7 1107.6 345.8 1109.8 345.8C1111.9 345.8 1113.1 346.8 1113.2 348.6L1115.4 348.6C1115.3 345.7 1113.1 343.9 1109.9 343.9C1106.6 343.9 1104.3 345.7 1104.3 348.4C1104.3 350.5 1105.6 351.9 1108.3 352.6L1110.9 353.2C1112.8 353.7 1113.4 354.4 1113.4 355.7C1113.4 357.4 1112.0 358.4 1109.6 358.4C1107.4 358.4 1106.1 357.3 1106.1 355.5ZM1120.8 360.2C1121.9 360.2 1122.8 359.3 1122.8 358.2C1122.8 357.1 1121.9 356.2 1120.8 356.2C1119.7 356.2 1118.8 357.1 1118.8 358.2C1118.8 359.3 1119.7 360.2 1120.8 360.2Z "/><mask id="satori_om-id-0-2"><rect x="231" y="413" width="738" height="57" fill="#fff"/></mask><mask id="satori_ms-id-0-2-0-1" maskUnits="userSpaceOnUse"><rect x="0" y="0" width="1200" height="600" fill="#fff"/><path x="231" y="413" width="169" height="57" fill="#000"  stroke-width="0" d="M259.5,413 h112 a28.5,28.5 0 0 1 28.5,28.5 v0 a28.5,28.5 0 0 1 -28.5,28.5 h-112 a28.5,28.5 0 0 1 -28.5,-28.5 v0 a28.5,28.5 0 0 1 28.5,-28.5"/></mask><defs><filter id="satori_s-id-0-2-0-1" x="-532.5443786982248%" y="-1578.9473684210525%" width="1165.0887573964496%" height="3257.8947368421054%"><feGaussianBlur stdDeviation="30" result="b"/><feFlood flood-color="rgba(201, 201, 201, 0.60)" in="SourceGraphic" result="f"/><feComposite in="f" in2="b" operator="in"/></filter></defs><g mask="url(#satori_ms-id-0-2-0-1)" filter="url(#satori_s-id-0-2-0-1)" opacity="1"><path x="251" y="433" width="169" height="57" fill="#fff" stroke="#fff" stroke-width="0" d="M279.5,433 h112 a28.5,28.5 0 0 1 28.5,28.5 v0 a28.5,28.5 0 0 1 -28.5,28.5 h-112 a28.5,28.5 0 0 1 -28.5,-28.5 v0 a28.5,28.5 0 0 1 28.5,-28.5"/></g><mask id="satori_ms-id-0-2-0-0" maskUnits="userSpaceOnUse"><rect x="0" y="0" width="1200" height="600" fill="#fff"/><path x="231" y="413" width="169" height="57" fill="#000"  stroke-width="0" d="M259.5,413 h112 a28.5,28.5 0 0 1 28.5,28.5 v0 a28.5,28.5 0 0 1 -28.5,28.5 h-112 a28.5,28.5 0 0 1 -28.5,-28.5 v0 a28.5,28.5 0 0 1 28.5,-28.5"/></mask><defs><filter id="satori_s-id-0-2-0-0" x="-532.5443786982248%" y="-1578.9473684210525%" width="1165.0887573964496%" height="3257.8947368421054%"><feGaussianBlur stdDeviation="30" result="b"/><feFlood flood-color="#FFF" in="SourceGraphic" result="f"/><feComposite in="f" in2="b" operator="in"/></filter></defs><g mask="url(#satori_ms-id-0-2-0-0)" filter="url(#satori_s-id-0-2-0-0)" opacity="1"><path x="211" y="393" width="169" height="57" fill="#fff" stroke="#fff" stroke-width="0" d="M239.5,393 h112 a28.5,28.5 0 0 1 28.5,28.5 v0 a28.5,28.5 0 0 1 -28.5,28.5 h-112 a28.5,28.5 0 0 1 -28.5,-28.5 v0 a28.5,28.5 0 0 1 28.5,-28.5"/></g><mask id="satori_om-id-0-2-0"><rect x="231" y="413" width="169" height="57" fill="#fff"/></mask><path x="231" y="413" width="169" height="57" fill="#ECECEC" d="M259.5,413 h112 a28.5,28.5 0 0 1 28.5,28.5 v0 a28.5,28.5 0 0 1 -28.5,28.5 h-112 a28.5,28.5 0 0 1 -28.5,-28.5 v0 a28.5,28.5 0 0 1 28.5,-28.5"/><mask id="satori_om-id-0-2-0-0"><rect x="251" y="429" width="50" height="25" fill="#fff"/></mask><path fill="#0500FF" d="M260.3 443.3L260.3 441.6L254.6 441.6L254.6 436.8L261.4 436.8L261.4 435.0L252.7 435.0L252.7 449.5L254.6 449.5L254.6 443.3ZM262.1 444.6C262.1 447.6 264.2 449.7 267.2 449.7C270.1 449.7 272.2 447.6 272.2 444.6C272.2 441.6 270.1 439.4 267.2 439.4C264.2 439.4 262.1 441.6 262.1 444.6ZM264.0 444.6C264.0 442.5 265.3 441.1 267.2 441.1C269.0 441.1 270.4 442.5 270.4 444.6C270.4 446.6 269.0 448.0 267.2 448.0C265.3 448.0 264.0 446.6 264.0 444.6ZM279.9 439.6C279.5 439.5 279.3 439.5 278.9 439.5C277.6 439.5 276.6 440.2 276.2 441.2L276.1 439.7L274.3 439.7L274.3 449.5L276.2 449.5L276.2 444.3C276.2 442.4 277.3 441.3 279.1 441.3L279.9 441.3ZM283.6 449.5L283.6 446.7L285.3 445.0L288.1 449.5L290.3 449.5L286.6 443.6L290.3 439.7L287.9 439.7L283.6 444.3L283.6 434.8L281.7 434.8L281.7 449.5ZM291.1 446.6C291.1 448.5 292.6 449.7 294.9 449.7C297.2 449.7 298.8 448.5 298.8 446.7C298.8 445.2 298.0 444.5 296.3 444.1L294.6 443.6C293.6 443.4 293.1 443.0 293.1 442.3C293.1 441.4 293.8 440.9 295.0 440.9C296.1 440.9 296.8 441.5 296.8 442.5L298.6 442.5C298.6 440.6 297.2 439.4 295.0 439.4C292.9 439.4 291.4 440.6 291.4 442.4C291.4 443.8 292.2 444.7 293.9 445.1L295.6 445.5C296.7 445.7 297.0 446.1 297.0 446.8C297.0 447.7 296.2 448.2 294.9 448.2C293.7 448.2 292.9 447.6 292.9 446.6Z "/><mask id="satori_om-id-0-2-0-1"><rect x="328" y="422" width="1" height="39" fill="#fff"/></mask><rect x="328" y="422" width="1" height="39" fill="#CCC"/><mask id="satori_om-id-0-2-0-2"><rect x="356" y="429" width="24" height="25" fill="#fff"/></mask><path fill="#000" d="M361.8 449.8C364.8 449.8 366.8 447.7 366.8 444.8C366.8 442.2 365 440.0 362.0 440.0C360.9 440.0 359.9 440.4 359.1 441.0L360.1 436.5L366.0 436.5L366.0 435.2L359.1 435.2L357.4 442.4L358.5 442.8C359.3 441.9 360.5 441.3 361.8 441.3C364.1 441.3 365.4 442.9 365.4 444.9C365.4 447 364.0 448.4 361.8 448.4C359.8 448.4 358.5 447.2 358.5 445.1L357.1 445.1C357.1 448.0 358.9 449.8 361.8 449.8ZM370.4 440.0C369.0 441.9 368.6 443.0 368.6 444.7C368.6 447.5 370.8 449.8 373.7 449.8C376.6 449.8 378.8 447.6 378.8 444.7C378.8 441.9 376.8 439.7 373.8 439.7C373.2 439.7 372.6 439.8 371.9 440.2L375.6 435.2L374.0 435.2ZM370.0 444.7C370.0 442.5 371.5 441.0 373.7 441.0C375.8 441.0 377.4 442.5 377.4 444.7C377.4 446.9 375.8 448.5 373.7 448.5C371.5 448.5 370.0 446.9 370.0 444.7Z "/><mask id="satori_ms-id-0-2-1-1" maskUnits="userSpaceOnUse"><rect x="0" y="0" width="1200" height="600" fill="#fff"/><path x="524" y="413" width="164" height="57" fill="#000"  stroke-width="0" d="M552.5,413 h107 a28.5,28.5 0 0 1 28.5,28.5 v0 a28.5,28.5 0 0 1 -28.5,28.5 h-107 a28.5,28.5 0 0 1 -28.5,-28.5 v0 a28.5,28.5 0 0 1 28.5,-28.5"/></mask><defs><filter id="satori_s-id-0-2-1-1" x="-548.7804878048781%" y="-1578.9473684210525%" width="1197.5609756097563%" height="3257.8947368421054%"><feGaussianBlur stdDeviation="30" result="b"/><feFlood flood-color="rgba(201, 201, 201, 0.60)" in="SourceGraphic" result="f"/><feComposite in="f" in2="b" operator="in"/></filter></defs><g mask="url(#satori_ms-id-0-2-1-1)" filter="url(#satori_s-id-0-2-1-1)" opacity="1"><path x="544" y="433" width="164" height="57" fill="#fff" stroke="#fff" stroke-width="0" d="M572.5,433 h107 a28.5,28.5 0 0 1 28.5,28.5 v0 a28.5,28.5 0 0 1 -28.5,28.5 h-107 a28.5,28.5 0 0 1 -28.5,-28.5 v0 a28.5,28.5 0 0 1 28.5,-28.5"/></g><mask id="satori_ms-id-0-2-1-0" maskUnits="userSpaceOnUse"><rect x="0" y="0" width="1200" height="600" fill="#fff"/><path x="524" y="413" width="164" height="57" fill="#000"  stroke-width="0" d="M552.5,413 h107 a28.5,28.5 0 0 1 28.5,28.5 v0 a28.5,28.5 0 0 1 -28.5,28.5 h-107 a28.5,28.5 0 0 1 -28.5,-28.5 v0 a28.5,28.5 0 0 1 28.5,-28.5"/></mask><defs><filter id="satori_s-id-0-2-1-0" x="-548.7804878048781%" y="-1578.9473684210525%" width="1197.5609756097563%" height="3257.8947368421054%"><feGaussianBlur stdDeviation="30" result="b"/><feFlood flood-color="#FFF" in="SourceGraphic" result="f"/><feComposite in="f" in2="b" operator="in"/></filter></defs><g mask="url(#satori_ms-id-0-2-1-0)" filter="url(#satori_s-id-0-2-1-0)" opacity="1"><path x="504" y="393" width="164" height="57" fill="#fff" stroke="#fff" stroke-width="0" d="M532.5,393 h107 a28.5,28.5 0 0 1 28.5,28.5 v0 a28.5,28.5 0 0 1 -28.5,28.5 h-107 a28.5,28.5 0 0 1 -28.5,-28.5 v0 a28.5,28.5 0 0 1 28.5,-28.5"/></g><mask id="satori_om-id-0-2-1"><rect x="524" y="413" width="164" height="57" fill="#fff"/></mask><path x="524" y="413" width="164" height="57" fill="#ECECEC" d="M552.5,413 h107 a28.5,28.5 0 0 1 28.5,28.5 v0 a28.5,28.5 0 0 1 -28.5,28.5 h-107 a28.5,28.5 0 0 1 -28.5,-28.5 v0 a28.5,28.5 0 0 1 28.5,-28.5"/><mask id="satori_om-id-0-2-1-0"><rect x="544" y="429" width="55" height="25" fill="#fff"/></mask><path fill="#FF005C" d="M547.6 435.0L545.7 435.0L545.7 449.5L547.6 449.5ZM549.9 446.6C549.9 448.5 551.4 449.7 553.7 449.7C556.0 449.7 557.6 448.5 557.6 446.7C557.6 445.2 556.8 444.5 555.1 444.1L553.4 443.6C552.4 443.4 551.9 443.0 551.9 442.3C551.9 441.4 552.6 440.9 553.8 440.9C554.9 440.9 555.6 441.5 555.6 442.5L557.4 442.5C557.4 440.6 556.0 439.4 553.8 439.4C551.7 439.4 550.2 440.6 550.2 442.4C550.2 443.8 551.0 444.7 552.7 445.1L554.4 445.5C555.5 445.7 555.8 446.1 555.8 446.8C555.8 447.7 555.0 448.2 553.7 448.2C552.5 448.2 551.7 447.6 551.7 446.6ZM558.9 446.6C558.9 448.5 560.3 449.7 562.6 449.7C564.9 449.7 566.5 448.5 566.5 446.7C566.5 445.2 565.7 444.5 564.1 444.1L562.3 443.6C561.4 443.4 560.9 443.0 560.9 442.3C560.9 441.4 561.6 440.9 562.7 440.9C563.9 440.9 564.5 441.5 564.6 442.5L566.4 442.5C566.3 440.6 564.9 439.4 562.8 439.4C560.6 439.4 559.1 440.6 559.1 442.4C559.1 443.8 559.9 444.7 561.7 445.1L563.4 445.5C564.4 445.7 564.7 446.1 564.7 446.8C564.7 447.7 564.0 448.2 562.7 448.2C561.4 448.2 560.7 447.6 560.7 446.6ZM575.4 439.7L575.4 444.9C575.4 447.0 574.4 448.1 572.7 448.1C571.3 448.1 570.4 447.3 570.4 445.2L570.4 439.7L568.5 439.7L568.5 445.8C568.5 448.2 569.8 449.7 572.1 449.7C573.5 449.7 574.8 449.0 575.4 448.0L575.6 449.5L577.2 449.5L577.2 439.7ZM584.0 449.7C586.4 449.7 588.0 448.5 588.5 446.4L586.8 446.4C586.4 447.6 585.5 448.2 584.0 448.2C582.2 448.2 581.1 447.0 580.9 445.0L588.5 444.9L588.5 444.2C588.5 441.3 586.7 439.4 583.9 439.4C581.1 439.4 579.1 441.5 579.1 444.6C579.1 447.6 581.1 449.7 584.0 449.7ZM583.9 441.0C585.6 441.0 586.6 442.1 586.6 443.7L581.0 443.7C581.2 442.0 582.3 441.0 583.9 441.0ZM589.8 446.6C589.8 448.5 591.3 449.7 593.6 449.7C595.9 449.7 597.5 448.5 597.5 446.7C597.5 445.2 596.7 444.5 595.0 444.1L593.3 443.6C592.3 443.4 591.8 443.0 591.8 442.3C591.8 441.4 592.5 440.9 593.7 440.9C594.8 440.9 595.5 441.5 595.5 442.5L597.3 442.5C597.3 440.6 595.9 439.4 593.7 439.4C591.6 439.4 590.1 440.6 590.1 442.4C590.1 443.8 590.9 444.7 592.6 445.1L594.3 445.5C595.4 445.7 595.7 446.1 595.7 446.8C595.7 447.7 594.9 448.2 593.6 448.2C592.4 448.2 591.6 447.6 591.6 446.6Z "/><mask id="satori_om-id-0-2-1-1"><rect x="626" y="422" width="1" height="39" fill="#fff"/></mask><rect x="626" y="422" width="1" height="39" fill="#CCC"/><mask id="satori_om-id-0-2-1-2"><rect x="654" y="429" width="14" height="25" fill="#fff"/></mask><path fill="#000" d="M657.6 436.5L657.6 449.5L659 449.5L659 435.2L654.7 435.2L654.7 436.5ZM664.2 436.5L664.2 449.5L665.6 449.5L665.6 435.2L661.3 435.2L661.3 436.5Z "/><mask id="satori_ms-id-0-2-2-1" maskUnits="userSpaceOnUse"><rect x="0" y="0" width="1200" height="600" fill="#fff"/><path x="812" y="413" width="157" height="57" fill="#000"  stroke-width="0" d="M840.5,413 h100 a28.5,28.5 0 0 1 28.5,28.5 v0 a28.5,28.5 0 0 1 -28.5,28.5 h-100 a28.5,28.5 0 0 1 -28.5,-28.5 v0 a28.5,28.5 0 0 1 28.5,-28.5"/></mask><defs><filter id="satori_s-id-0-2-2-1" x="-573.248407643312%" y="-1578.9473684210525%" width="1246.496815286624%" height="3257.8947368421054%"><feGaussianBlur stdDeviation="30" result="b"/><feFlood flood-color="rgba(201, 201, 201, 0.60)" in="SourceGraphic" result="f"/><feComposite in="f" in2="b" operator="in"/></filter></defs><g mask="url(#satori_ms-id-0-2-2-1)" filter="url(#satori_s-id-0-2-2-1)" opacity="1"><path x="832" y="433" width="157" height="57" fill="#fff" stroke="#fff" stroke-width="0" d="M860.5,433 h100 a28.5,28.5 0 0 1 28.5,28.5 v0 a28.5,28.5 0 0 1 -28.5,28.5 h-100 a28.5,28.5 0 0 1 -28.5,-28.5 v0 a28.5,28.5 0 0 1 28.5,-28.5"/></g><mask id="satori_ms-id-0-2-2-0" maskUnits="userSpaceOnUse"><rect x="0" y="0" width="1200" height="600" fill="#fff"/><path x="812" y="413" width="157" height="57" fill="#000"  stroke-width="0" d="M840.5,413 h100 a28.5,28.5 0 0 1 28.5,28.5 v0 a28.5,28.5 0 0 1 -28.5,28.5 h-100 a28.5,28.5 0 0 1 -28.5,-28.5 v0 a28.5,28.5 0 0 1 28.5,-28.5"/></mask><defs><filter id="satori_s-id-0-2-2-0" x="-573.248407643312%" y="-1578.9473684210525%" width="1246.496815286624%" height="3257.8947368421054%"><feGaussianBlur stdDeviation="30" result="b"/><feFlood flood-color="#FFF" in="SourceGraphic" result="f"/><feComposite in="f" in2="b" operator="in"/></filter></defs><g mask="url(#satori_ms-id-0-2-2-0)" filter="url(#satori_s-id-0-2-2-0)" opacity="1"><path x="792" y="393" width="157" height="57" fill="#fff" stroke="#fff" stroke-width="0" d="M820.5,393 h100 a28.5,28.5 0 0 1 28.5,28.5 v0 a28.5,28.5 0 0 1 -28.5,28.5 h-100 a28.5,28.5 0 0 1 -28.5,-28.5 v0 a28.5,28.5 0 0 1 28.5,-28.5"/></g><mask id="satori_om-id-0-2-2"><rect x="812" y="413" width="157" height="57" fill="#fff"/></mask><path x="812" y="413" width="157" height="57" fill="#ECECEC" d="M840.5,413 h100 a28.5,28.5 0 0 1 28.5,28.5 v0 a28.5,28.5 0 0 1 -28.5,28.5 h-100 a28.5,28.5 0 0 1 -28.5,-28.5 v0 a28.5,28.5 0 0 1 28.5,-28.5"/><mask id="satori_om-id-0-2-2-0"><rect x="832" y="429" width="45" height="25" fill="#fff"/></mask><path fill="#FF7A00" d="M832.8 438.9C832.8 441.0 834.1 442.4 836.4 442.9L838.8 443.4C840.2 443.8 840.8 444.5 840.8 445.6C840.8 447.1 839.6 448.0 837.7 448.0C835.8 448.0 834.7 447.1 834.6 445.7L832.6 445.7C832.8 448.2 834.7 449.7 837.7 449.7C840.7 449.7 842.8 448.1 842.8 445.5C842.8 443.4 841.6 442.1 839.2 441.6L836.8 441.0C835.5 440.7 834.8 440.0 834.8 438.9C834.8 437.4 836.0 436.5 837.8 436.5C839.4 436.5 840.4 437.4 840.5 438.8L842.5 438.8C842.4 436.3 840.6 434.8 837.8 434.8C834.8 434.8 832.8 436.4 832.8 438.9ZM847.7 449.5L847.7 441.3L849.6 441.3L849.6 439.7L847.7 439.7L847.7 436.6L845.8 436.6L845.8 439.7L843.9 439.7L843.9 441.3L845.8 441.3L845.8 449.5ZM854 449.7C855.6 449.7 856.9 449.0 857.4 447.9L857.6 449.5L859.2 449.5L859.2 443.3C859.2 440.7 857.6 439.4 855.2 439.4C852.6 439.4 851.0 440.8 851.0 442.8L852.6 442.8C852.6 441.6 853.5 440.9 855.1 440.9C856.4 440.9 857.4 441.5 857.4 443.1L857.4 443.4L854.3 443.7C852 443.8 850.7 445.0 850.7 446.8C850.7 448.5 851.9 449.7 854 449.7ZM854.5 448.3C853.3 448.3 852.6 447.7 852.6 446.7C852.6 445.7 853.2 445.1 854.9 444.9L857.4 444.7L857.4 445.3C857.4 447.1 856.3 448.3 854.5 448.3ZM867.4 439.6C867.0 439.5 866.8 439.5 866.4 439.5C865.1 439.5 864.1 440.2 863.7 441.2L863.6 439.7L861.8 439.7L861.8 449.5L863.7 449.5L863.7 444.3C863.7 442.4 864.8 441.3 866.6 441.3L867.4 441.3ZM868.4 446.6C868.4 448.5 869.8 449.7 872.1 449.7C874.5 449.7 876.1 448.5 876.1 446.7C876.1 445.2 875.2 444.5 873.6 444.1L871.9 443.6C870.9 443.4 870.4 443.0 870.4 442.3C870.4 441.4 871.1 440.9 872.3 440.9C873.4 440.9 874.1 441.5 874.1 442.5L875.9 442.5C875.9 440.6 874.5 439.4 872.3 439.4C870.2 439.4 868.6 440.6 868.6 442.4C868.6 443.8 869.5 444.7 871.2 445.1L872.9 445.5C873.9 445.7 874.3 446.1 874.3 446.8C874.3 447.7 873.5 448.2 872.2 448.2C870.9 448.2 870.2 447.6 870.2 446.6Z "/><mask id="satori_om-id-0-2-2-1"><rect x="904" y="422" width="1" height="39" fill="#fff"/></mask><rect x="904" y="422" width="1" height="39" fill="#CCC"/><mask id="satori_om-id-0-2-2-2"><rect x="932" y="429" width="17" height="25" fill="#fff"/></mask><path fill="#000" d="M935.6 436.5L935.6 449.5L937 449.5L937 435.2L932.7 435.2L932.7 436.5ZM939.3 435.2L939.3 436.5L947.6 436.5L942.0 449.5L943.4 449.5L949.1 436.5L949.1 435.2Z "/></svg>